<svg width="28" height="28" viewBox="0 0 28 28" fill="none" xmlns="http://www.w3.org/2000/svg">
<path d="M24.3133 5.37839C23.7174 4.78223 23.0099 4.30931 22.2312 3.98665C21.4525 3.664 20.6179 3.49792 19.775 3.49792C18.9321 3.49792 18.0975 3.664 17.3187 3.98665C16.54 4.30931 15.8325 4.78223 15.2367 5.37839L14 6.61505L12.7633 5.37839C11.5597 4.17475 9.9272 3.49855 8.225 3.49855C6.52279 3.49855 4.8903 4.17475 3.68666 5.37839C2.48302 6.58203 1.80682 8.21452 1.80682 9.91672C1.80682 11.6189 2.48302 13.2514 3.68666 14.4551L4.92333 15.6917L14 24.7684L23.0767 15.6917L24.3133 14.4551C24.9095 13.8592 25.3824 13.1517 25.7051 12.373C26.0277 11.5943 26.1938 10.7596 26.1938 9.91672C26.1938 9.07382 26.0277 8.23918 25.7051 7.46047C25.3824 6.68177 24.9095 5.97427 24.3133 5.37839V5.37839Z" stroke="#181818" stroke-linecap="round" stroke-linejoin="round"/>
</svg>
